<?xml version="1.0" encoding="UTF-8" standalone="no"?>
<svg width="300px" height="119px" viewBox="0 0 300 119" version="1.1" xmlns="http://www.w3.org/2000/svg" xmlns:xlink="http://www.w3.org/1999/xlink">
    <!-- Generator: Sketch 46.2 (44496) - http://www.bohemiancoding.com/sketch -->
    <title>controls</title>
    <desc>Created with Sketch.</desc>
    <defs></defs>
    <g id="Page-1" stroke="none" stroke-width="1" fill="none" fill-rule="evenodd">
        <g id="controls" transform="translate(2.000000, 0.000000)">
            <g transform="translate(2.000000, 0.000000)">
                <g id="play_pause" transform="translate(0.000000, 1.000000)" fill-rule="nonzero" fill="#89ABB4">
                    <g id="play">
                        <g id="Polygon">
                            <path d="M12.48,7.49 C12.668756,7.58520493 12.7878096,7.77859323 12.7878096,7.99 C12.7878096,8.20140677 12.668756,8.39479507 12.48,8.49 L1.1,15.49 C0.63,15.78 0.25,15.56 0.25,15.01 L0.25,1.01 C0.25,0.46 0.63,0.24 1.1,0.53 L12.48,7.49 Z" id="Shape"></path>
                        </g>
                    </g>
                </g>
                <g id="pause" transform="translate(19.000000, 1.000000)" fill-rule="nonzero" fill="#89ABB4">
                    <g id="Group">
                        <rect id="Rectangle-path" x="0" y="0.01" width="4.2" height="16" rx="1"></rect>
                        <rect id="Rectangle-path" x="9.8" y="0.01" width="4.2" height="16" rx="1"></rect>
                    </g>
                </g>
                <g id="fullscreen" transform="translate(76.000000, 0.000000)" fill-rule="nonzero" fill="#89ABB4">
                    <g id="enter">
                        <path d="M1,1.39 C1,0.83771525 1.44771525,0.39 2,0.39 L7.41,0.39 C7.96,0.39 8.09,0.71 7.7,1.1 L1.7,7.1 C1.31,7.49 0.99,7.36 0.99,6.81 L1,1.39 Z" id="Shape"></path>
                        <path d="M1,17.18 C1,17.7322847 1.44771525,18.18 2,18.18 L7.41,18.18 C7.96,18.18 8.09,17.86 7.7,17.47 L1.7,11.47 C1.31,11.08 0.99,11.21 0.99,11.76 L1,17.18 Z" id="Shape"></path>
                        <path d="M18.8,1.39 C18.8,0.83771525 18.3522847,0.39 17.8,0.39 L12.38,0.39 C11.83,0.39 11.7,0.71 12.09,1.1 L18.09,7.1 C18.48,7.49 18.8,7.36 18.8,6.81 L18.8,1.39 Z" id="Shape"></path>
                        <path d="M18.8,17.18 C18.8,17.7322847 18.3522847,18.18 17.8,18.18 L12.38,18.18 C11.83,18.18 11.7,17.86 12.09,17.47 L18.09,11.47 C18.48,11.08 18.8,11.21 18.8,11.76 L18.8,17.18 Z" id="Shape"></path>
                    </g>
                </g>
                <g id="exit" transform="translate(96.000000, 0.000000)" fill-rule="nonzero" fill="#89ABB4">
                    <g id="Group">
                        <path d="M12.7,5.01 C12.7,5.56228475 13.1477153,6.01 13.7,6.01 L17.8,6.01 C18.35,6.01 18.48,5.69 18.09,5.3 L13.41,0.62 C13.02,0.23 12.7,0.36 12.7,0.91 L12.7,5.01 Z" id="Shape"></path>
                        <path d="M5.6,6.01 C6.15228475,6.01 6.6,5.56228475 6.6,5.01 L6.6,0.89 C6.6,0.34 6.28,0.21 5.89,0.6 L1.17,5.28 C0.78,5.67 0.91,5.99 1.46,5.99 L5.6,6.01 Z" id="Shape"></path>
                        <path d="M6.6,13.08 C6.6,12.5277153 6.15228475,12.08 5.6,12.08 L1.5,12.08 C0.95,12.08 0.82,12.4 1.21,12.79 L5.89,17.47 C6.28,17.86 6.6,17.73 6.6,17.18 L6.6,13.08 Z" id="Shape"></path>
                        <path d="M13.7,12.08 C13.1477153,12.08 12.7,12.5277153 12.7,13.08 L12.7,17.18 C12.7,17.73 13.02,17.86 13.41,17.47 L18.09,12.79 C18.48,12.4 18.35,12.08 17.8,12.08 L13.7,12.08 Z" id="Shape"></path>
                    </g>
                </g>
                <g id="volume" transform="translate(57.000000, 2.000000)">
                    <path d="M5.97,3.78 C5.43645824,4.14145072 4.81370384,4.34903552 4.17,4.38 L1.02,4.38 C0.46771525,4.38 0.02,4.82771525 0.02,5.38 L0.02,11.11 C0.02,11.6622847 0.46771525,12.11 1.02,12.11 L4.17,12.11 C4.5028034,12.0834185 4.8371966,12.0834185 5.17,12.11 C5.42706597,12.336121 5.69755876,12.5465043 5.98,12.74 L9.52,15.34 C9.96,15.67 10.33,15.48 10.33,14.93 L10.33,1.51 C10.33,0.96 9.97,0.78 9.53,1.11 L5.97,3.78 Z" id="Shape" fill="#89ABB4" fill-rule="nonzero"></path>
                    <g id="volume-2" transform="translate(11.000000, 0.000000)" stroke-linecap="round" stroke-width="1.5" stroke="#89ABB4">
                        <g id="soundbars">
                            <path d="M1.89,0.51 C1.89,0.51 5.84,-0.3 5.76,8.24 C5.68,16.78 1.89,16.01 1.89,16.01" id="Shape"></path>
                            <path d="M0.6,4.39 C0.6,4.39 3.23,4.01 3.17,8.24 C3.11,12.47 0.59,12.1 0.59,12.1" id="Shape"></path>
                        </g>
                    </g>
                </g>
                <g id="closed_captions" transform="translate(116.000000, 2.000000)">
                    <path d="M8.7,6.59 C2.53,2.38 2.24,14.36 8.7,10.51" id="Shape" stroke="#89ABB4"></path>
                    <path d="M15.23,6.59 C9.06,2.38 8.77,14.36 15.23,10.51" id="Shape" stroke="#89ABB4"></path>
                    <path d="M2.17,1.36 L17.86,1.36 L17.86,14.44 L2.17,14.44 L2.17,1.36 Z M0.85,0.01 L0.85,15.74 L19.17,15.74 L19.17,0.01 L0.85,0.01 Z" id="Shape" fill="#89ABB4" fill-rule="nonzero"></path>
                </g>
                <g id="muted" transform="translate(37.000000, 2.000000)">
                    <path d="M5.97,3.78 C5.43645824,4.14145072 4.81370384,4.34903552 4.17,4.38 L1.02,4.38 C0.46771525,4.38 0.02,4.82771525 0.02,5.38 L0.02,11.11 C0.02,11.6622847 0.46771525,12.11 1.02,12.11 L4.17,12.11 C4.5028034,12.0834185 4.8371966,12.0834185 5.17,12.11 C5.42706597,12.336121 5.69755876,12.5465043 5.98,12.74 L9.52,15.34 C9.96,15.67 10.33,15.48 10.33,14.93 L10.33,1.51 C10.33,0.96 9.97,0.78 9.53,1.11 L5.97,3.78 Z" id="Shape" fill="#89ABB4" fill-rule="nonzero"></path>
                    <path d="M11.83,4.98 L17.22,10.36" id="Shape" stroke="#89ABB4" stroke-width="2" stroke-linecap="round"></path>
                    <polyline id="Shape" stroke="#89ABB4" stroke-width="2" stroke-linecap="round" points="11.83 10.36 14.7332495 7.46213687 17.22 4.98"></polyline>
                </g>
                <g id="skip_forward" transform="translate(177.000000, 0.000000)">
                    <g id="play_pause-2" transform="translate(6.000000, 0.000000)" fill-rule="nonzero" fill="#89ABB4">
                        <g id="play-2">
                            <polygon id="Polygon-2" points="5.17 2.17 0.84 4.33 0.84 0.01"></polygon>
                        </g>
                    </g>
                    <g id="play_pause-3" transform="translate(9.000000, 0.000000)" fill-rule="nonzero" fill="#89ABB4">
                        <g id="play-3">
                            <polygon id="Polygon-3" points="4.9 2.17 0.57 4.33 0.57 0.01"></polygon>
                        </g>
                    </g>
                    <path d="M9,2.17 C6.83501968,2.16734195 4.75794701,3.02620017 3.22707359,4.55707359 C1.69620017,6.08794701 0.837341949,8.16501968 0.84,10.33" id="Shape" stroke="#89ABB4" stroke-width="2"></path>
                    <path d="M0.85,9.84 C0.844687156,12.0049776 1.70099942,14.0831037 3.22999712,15.6158535 C4.75899483,17.1486034 6.83501592,18.0100065 9,18.01" id="Shape" stroke="#89ABB4" stroke-width="2"></path>
                    <path d="M8.63,18.01 C10.7949803,18.0126581 12.872053,17.1537998 14.4029264,15.6229264 C15.9337998,14.092053 16.7926581,12.0149803 16.79,9.85" id="Shape" stroke="#89ABB4" stroke-width="2"></path>
                </g>
                <g id="skipback" transform="translate(158.000000, 0.000000)">
                    <path d="M0.69,9.66 C0.687341949,11.8249803 1.54620017,13.902053 3.07707359,15.4329264 C4.60794701,16.9637998 6.68501968,17.8226581 8.85,17.82" id="Shape" stroke="#89ABB4" stroke-width="2"></path>
                    <path d="M8.37,17.81 C10.5349803,17.8126581 12.612053,16.9537998 14.1429264,15.4229264 C15.6737998,13.892053 16.5326581,11.8149803 16.53,9.65" id="Shape" stroke="#89ABB4" stroke-width="2"></path>
                    <path d="M16.53,10.01 C16.5326581,7.84501968 15.6737998,5.76794701 14.1429264,4.23707359 C12.612053,2.70620017 10.5349803,1.84734195 8.37,1.85" id="Shape" stroke="#89ABB4" stroke-width="2"></path>
                    <g id="play_pause-4" transform="translate(4.000000, 0.000000)" fill-rule="nonzero" fill="#89ABB4">
                        <g id="play-4">
                            <polygon id="Polygon-4" points="0.59 2.17 4.91 4.33 4.91 0.01"></polygon>
                        </g>
                    </g>
                    <g id="play_pause-5" transform="translate(1.000000, 0.000000)" fill-rule="nonzero" fill="#89ABB4">
                        <g id="play-5">
                            <polygon id="Polygon-5" points="0.87 2.17 5.17 4.33 5.17 0.01"></polygon>
                        </g>
                    </g>
                </g>
                <g id="close_captions" transform="translate(137.000000, 3.000000)" fill-rule="nonzero">
                    <rect id="Rectangle-path" fill="#89ABB4" x="0.17" y="0.01" width="18" height="14" rx="2"></rect>
                    <path d="M5.36,10.79 C4.53064015,10.8044392 3.74100092,10.4354489 3.22,9.79 C2.15319277,8.35955349 2.20276027,6.38511479 3.34,5.01 C3.85,4.45 5.34,3.36 7.98,5.17 L7.42,6 C5.99,5 4.8,4.91 4.08,5.69 C3.284379,6.70008069 3.25177391,8.1143263 4,9.16 C4.7,10.02 5.92,9.99 7.45,9.08 L7.96,9.94 C7.18623882,10.4534317 6.2876246,10.7472094 5.36,10.79 L5.36,10.79 Z" id="Shape" fill="#231F20"></path>
                    <path d="M12.9,10.79 C12.0706401,10.8044392 11.2810009,10.4354489 10.76,9.79 C9.69319277,8.35955349 9.74276027,6.38511479 10.88,5.01 C11.39,4.45 12.88,3.36 15.52,5.17 L14.96,6 C13.53,5 12.34,4.91 11.62,5.69 C10.824379,6.70008069 10.7917739,8.1143263 11.54,9.16 C12.24,10.02 13.46,9.99 14.99,9.08 L15.5,9.94 C14.7262388,10.4534317 13.8276246,10.7472094 12.9,10.79 L12.9,10.79 Z" id="Shape" fill="#231F20"></path>
                </g>
                <path d="M214.63,9.39 C214.602036,8.80308953 214.197664,8.30166877 213.63,8.15 L211.78,7.69 C211.539858,7.6523316 211.33645,7.49277919 211.242669,7.26852023 C211.148888,7.04426127 211.178162,6.78740544 211.32,6.59 L212.32,4.95 C212.61755,4.4464482 212.556992,3.8085636 212.17,3.37 L212.17,3.37 C211.744248,2.979339 211.117076,2.9029527 210.61,3.18 L208.97,4.18 C208.772595,4.32183813 208.515739,4.351112 208.29148,4.25733098 C208.067221,4.16354996 207.907668,3.96014174 207.87,3.72 L207.41,1.87 C207.258331,1.30233594 206.75691,0.897964354 206.17,0.87 L206.17,0.87 C205.58309,0.897964354 205.081669,1.30233594 204.93,1.87 L204.47,3.72 C204.432332,3.96014174 204.272779,4.16354996 204.04852,4.25733098 C203.824261,4.351112 203.567405,4.32183813 203.37,4.18 L201.73,3.18 C201.222924,2.9029527 200.595752,2.979339 200.17,3.37 L200.17,3.37 C199.779339,3.79575242 199.702953,4.42292414 199.98,4.93 L200.98,6.57 C201.121838,6.76740544 201.151112,7.02426127 201.057331,7.24852023 C200.96355,7.47277919 200.760142,7.6323316 200.52,7.67 L198.67,8.13 C198.102336,8.28166877 197.697964,8.78308953 197.67,9.37 L197.67,9.37 C197.697964,9.95691047 198.102336,10.4583312 198.67,10.61 L200.52,11.07 C200.760142,11.1076684 200.96355,11.2672208 201.057331,11.4914798 C201.151112,11.7157387 201.121838,11.9725946 200.98,12.17 L199.98,13.81 C199.702953,14.3170759 199.779339,14.9442476 200.17,15.37 L200.17,15.37 C200.595752,15.760661 201.222924,15.8370473 201.73,15.56 L203.37,14.56 C203.567405,14.4181619 203.824261,14.388888 204.04852,14.482669 C204.272779,14.57645 204.432332,14.7798583 204.47,15.02 L204.93,16.87 C205.081669,17.4376641 205.58309,17.8420356 206.17,17.87 L206.17,17.87 C206.75691,17.8420356 207.258331,17.4376641 207.41,16.87 L207.87,15.02 C207.907668,14.7798583 208.067221,14.57645 208.29148,14.482669 C208.515739,14.388888 208.772595,14.4181619 208.97,14.56 L210.61,15.56 C211.117076,15.8370473 211.744248,15.760661 212.17,15.37 L212.17,15.37 C212.560661,14.9442476 212.637047,14.3170759 212.36,13.81 L211.36,12.17 C211.218162,11.9725946 211.188888,11.7157387 211.282669,11.4914798 C211.37645,11.2672208 211.579858,11.1076684 211.82,11.07 L213.67,10.61 C214.237664,10.4583312 214.642036,9.95691047 214.67,9.37 L214.63,9.39 Z M208.95,9.39 C208.941784,10.532342 208.245198,11.5568748 207.185921,11.9845949 C206.126644,12.4123151 204.913967,12.1587135 204.114858,11.3423573 C203.315749,10.5260012 203.088096,9.30818658 203.538334,8.25828259 C203.988572,7.20837859 205.027743,6.5338257 206.17,6.55 C207.7118,6.57187169 208.950155,7.82804519 208.95,9.37 L208.95,9.39 Z" id="Shape" fill="#89ABB4" fill-rule="nonzero"></path>
                <rect id="Rectangle-path" fill="#89ABB4" fill-rule="nonzero" x="219" y="2.84" width="14" height="14" rx="2"></rect>
                <g id="loop" transform="translate(237.000000, 2.000000)" fill-rule="nonzero" fill="#89ABB4">
                    <path d="M13.22,4.53 C15.1210921,6.90441655 14.8313965,10.3513996 12.5606638,12.3752025 C10.2899311,14.3990054 6.83246065,14.2917046 4.6915923,12.1309899 C2.55072396,9.97027524 2.47533065,6.51196189 4.52,4.26 L2.9,2.64 C-0.0303285579,5.78617286 0.0500992994,10.6858534 3.08210965,13.7341549 C6.11412,16.7824565 11.0132992,16.8891388 14.1751294,13.9757115 C17.3369597,11.0622842 17.6305966,6.17074912 14.84,2.9 L13.22,4.53 Z" id="Shape"></path>
                    <g id="play_pause-6" transform="translate(10.000000, 0.000000)">
                        <g id="play-6">
                            <g id="Polygon-6">
                                <path d="M0.3,1.37 C0.251370043,1.13294243 0.325079746,0.887311141 0.496195443,0.716195443 C0.667311141,0.545079746 0.912942431,0.471370043 1.15,0.52 L6.67,1.29 C7.21,1.37 7.34,1.75 6.95,2.13 L1.95,7.13 C1.56,7.52 1.18,7.39 1.11,6.85 L0.3,1.37 Z" id="Shape"></path>
                            </g>
                        </g>
                    </g>
                </g>
                <g id="loop_off" opacity="0.5" transform="translate(258.000000, 2.000000)" fill-rule="nonzero" fill="#89ABB4">
                    <path d="M12.4658384,4.8264279 C14.3669202,7.12097851 14.0772262,10.4520187 11.8065058,12.4077489 C9.53578542,14.3634791 6.07833369,14.2597875 3.93747693,12.1717507 C1.79662018,10.0837139 1.72122728,6.74172446 3.76588556,4.56550963 L2.14589433,3 C-0.784418352,6.0403481 -0.70399093,10.7752228 2.328003,13.7209916 C5.35999693,16.6667604 10.2591496,16.7698543 13.4209627,13.9544232 C16.5827758,11.138992 16.8764111,6.41198874 14.0858297,3.25125463 L12.4658384,4.8264279 Z" id="Shape"></path>
                    <g id="play_pause-7" transform="translate(9.000000, 0.000000)">
                        <g id="play-7">
                            <g id="Polygon-7">
                                <path d="M0.46,1.62 C0.411370043,1.38294243 0.485079746,1.13731114 0.656195443,0.966195443 C0.827311141,0.795079746 1.07294243,0.721370043 1.31,0.77 L6.83,1.54 C7.37,1.62 7.5,2 7.11,2.38 L2.11,7.38 C1.72,7.77 1.34,7.64 1.27,7.1 L0.46,1.62 Z" id="Shape"></path>
                            </g>
                        </g>
                    </g>
                </g>
            </g>
            <g id="big_play" transform="translate(0.000000, 39.000000)">
                <g id="big_play_-_light" transform="translate(0.000000, 2.000000)" opacity="0.75">
                    <g id="Polygon-8" transform="translate(26.000000, 18.000000)" fill-rule="nonzero" fill="#89ABB4">
                        <path d="M32.27,18.01 C32.6944312,18.1592164 32.9784321,18.5601029 32.9784321,19.01 C32.9784321,19.4598971 32.6944312,19.8607836 32.27,20.01 L1.99,37.5 C0.99,38.05 0.26,37.6 0.26,36.5 L0.26,1.5 C0.26,0.4 1.04,-0.05 1.99,0.5 L32.27,18.01 Z" id="Shape"></path>
                    </g>
                    <path d="M0.5,38.01 C0.5,17.2993219 17.2893219,0.51 38,0.51 C58.7106781,0.51 75.5,17.2993219 75.5,38.01 C75.5,58.7206781 58.7106781,75.51 38,75.51 C17.2893219,75.51 0.5,58.7206781 0.5,38.01 Z" id="Ellipse" stroke="#89ABB4" stroke-width="5"></path>
                </g>
                <g id="big_play_hover" transform="translate(80.000000, 2.000000)">
                    <g id="Polygon2" transform="translate(26.000000, 18.000000)" fill-rule="nonzero" fill="#89ABB4">
                        <path d="M32.27,18.01 C32.6944312,18.1592164 32.9784321,18.5601029 32.9784321,19.01 C32.9784321,19.4598971 32.6944312,19.8607836 32.27,20.01 L1.99,37.5 C0.99,38.05 0.26,37.6 0.26,36.5 L0.26,1.5 C0.26,0.4 1.04,-0.05 1.99,0.5 L32.27,18.01 Z" id="Shape"></path>
                    </g>
                    <path d="M38,0.51 C58.7106781,0.51 75.5,17.2993219 75.5,38.01 C75.5,58.7206781 58.7106781,75.51 38,75.51 C17.2893219,75.51 0.5,58.7206781 0.5,38.01 C0.5,17.2993219 17.2893219,0.51 38,0.51 Z" id="Ellipse2" stroke="#89ABB4" stroke-width="5"></path>
                </g>
                <g id="Loading" transform="translate(161.000000, 0.000000)" fill-rule="nonzero">
                    <circle id="Oval" fill="#89ABB4" cx="38.88" cy="8.13" r="8.13"></circle>
                    <circle id="Oval" fill="#89ABB4" opacity="0.4" cx="70.88" cy="40.01" r="5"></circle>
                    <circle id="Oval" fill="#89ABB4" opacity="0.6" cx="38.88" cy="71.88" r="6"></circle>
                    <circle id="Oval" fill="#89ABB4" opacity="0.8" cx="7.13" cy="40.01" r="7"></circle>
                    <circle id="Oval" fill="#FFFFFF" opacity="0.9" cx="15.25" cy="17.34" r="7.5"></circle>
                    <circle id="Oval" fill="#FFFFFF" opacity="0.3" cx="63.33" cy="17.09" r="4.5"></circle>
                    <circle id="Oval" fill="#FFFFFF" opacity="0.5" cx="62.75" cy="63.76" r="5.5"></circle>
                    <circle id="Oval" fill="#FFFFFF" opacity="0.7" cx="15.25" cy="63.76" r="6.5"></circle>
                </g>
            </g>
            <g id="Guides" transform="translate(280.000000, 2.000000)" fill-rule="nonzero" fill="#89ABB4">
                <g id="play_pause-8" transform="translate(10.000000, 1.000000)">
                    <g id="play-8">
                        <g id="Polygon-9">
                            <path d="M6.81,6.55 C6.78307388,6.79976033 6.63896802,7.021827 6.42183719,7.14815767 C6.20470636,7.27448834 5.94043603,7.29002235 5.71,7.19 L0.85,5.37 C0.34,5.18 0.3,4.79 0.78,4.52 L6.96,0.95 C7.44,0.68 7.75,0.89 7.66,1.44 L6.81,6.55 Z" id="Shape"></path>
                        </g>
                    </g>
                </g>
                <path d="M8.17,14.09 C7.16002642,14.0922879 6.16468691,13.8486013 5.27,13.38 C3.31333033,12.3627736 2.08126197,10.3452617 2.07,8.14 C2.13926413,5.19146626 4.30489657,2.7132681 7.21755316,2.24950054 C10.1302097,1.78573298 12.9584174,3.46878727 13.94,6.25 L14.04,6.1 L16.17,7.16 C15.5808218,2.9719201 11.8686701,-0.0579254686 7.64746501,0.203935892 C3.42625987,0.465797253 0.117039979,3.93121178 0.05,8.16 C0.0610154031,11.1030631 1.70105444,13.7979629 4.31,15.16 C5.49059239,15.7829507 6.80513483,16.1090122 8.14,16.11 C10.7342696,16.1149589 13.1751388,14.8815212 14.71,12.79 L12.91,11.86 C11.7422685,13.2738464 10.0037271,14.0917677 8.17,14.09 L8.17,14.09 Z" id="replay"></path>
            </g>
        </g>
    </g>
</svg>